<svg xmlns="http://www.w3.org/2000/svg" version="1.1" xmlns:xlink="http://www.w3.org/1999/xlink" xmlns:svgjs="http://svgjs.com/svgjs" width="1440" height="560" preserveAspectRatio="none" viewBox="0 0 1440 560">
  <g mask="url(&quot;#SvgjsMask1078&quot;)" fill="none">
    <rect width="1440" height="560" x="0" y="0" fill="url(#SvgjsLinearGradient1079)"></rect>
    <path d="M0 0L599.78 0L0 59.83z" fill="rgba(255, 255, 255, .1)"></path>
    <path d="M0 59.83L599.78 0L1004.65 0L0 139.3z" fill="rgba(255, 255, 255, .075)"></path>
    <path d="M0 139.3L1004.65 0L1266.76 0L0 300.13z" fill="rgba(255, 255, 255, .05)"></path>
    <path d="M0 300.13L1266.76 0L1360.32 0L0 468.44z" fill="rgba(255, 255, 255, .025)"></path>
    <path d="M1440 560L1090.47 560L1440 391.59000000000003z" fill="rgba(0, 0, 0, .1)"></path>
    <path d="M1440 391.59000000000003L1090.47 560L953.74 560L1440 304.97z" fill="rgba(0, 0, 0, .075)"></path>
    <path d="M1440 304.97L953.74 560L362.41999999999996 560L1440 295.6z" fill="rgba(0, 0, 0, .05)"></path>
    <path d="M1440 295.6L362.4200000000001 560L104.75000000000006 560L1440 283.19z" fill="rgba(0, 0, 0, .025)"></path>
  </g>
  <defs>
    <mask id="SvgjsMask1078">
      <rect width="1440" height="560" fill="#ffffff"></rect>
    </mask>
    <linearGradient x1="84.72%" y1="-39.29%" x2="15.28%" y2="139.29%" gradientUnits="userSpaceOnUse" id="SvgjsLinearGradient1079">
      <stop stop-color="rgba(237, 242, 249, 1)" offset="0"></stop>
      <stop stop-color="rgba(210, 221, 236, 1)" offset="1"></stop>
    </linearGradient>
  </defs>
</svg>